Coordinates
version=1
nRows=8
nColumns=33
inDegrees=yes

Units are S.I. units (second, meters, Newtons, ...)
Angles are in degrees.

endheader
time	ground_thorax_rot_x	ground_thorax_rot_y	ground_thorax_rot_z	ground_thorax_tx	ground_thorax_ty	ground_thorax_tz	clav_prot_r	clav_elev_r	scapula_abduction_r	scapula_elevation_r	scapula_upward_rot_r	scapula_winging_r	shoulder_elv_r	plane_of_elev_r	axial_rot_r	elbow_flexion_r	pro_sup_r	wrist_flex_r	wrist_dev_r	clav_prot_l	clav_elev_l	scapula_abduction_l	scapula_elevation_l	scapula_upward_rot_l	scapula_winging_l	shoulder_elv_l	plane_of_elev_l	axial_rot_l	elbow_flexion_l	pro_sup_l	wrist_flex_l	wrist_dev_l
     10.26000000	    -33.36203568	    -26.62572339	     32.76916440	   -116.82905224	    860.32071565	    -46.30361408	     26.37744622	    -45.00000000	     40.53791222	    -45.00000000	    -45.00000000	   1690.74276163	  -2081.39215022	     20.72163117	   -140.42011921	    358.86122304	    160.78877653	     16.16751044	     14.22268119	     -2.72608139	     38.42888623	    -35.89251892	    -45.00000000	    -25.00192108	   3700.40539100	  -2980.89830695	    143.43021165	    179.99999979	   2157.33926812	     38.82131985	     14.39206206	    -24.99999983
     10.27000000	    -33.32014096	    -26.67269936	     32.65160436	   -116.97755233	    860.53510753	    -46.32220975	     26.16515352	    -45.00000000	     40.75806101	    -45.00000000	    -45.00000000	   1690.72860845	  -2081.46044570	     20.71542154	   -140.43417562	    358.73131399	    160.73234743	     16.19469340	     14.36953560	     -3.73113312	     38.57475651	    -35.52150494	    -45.00000000	    -23.94590987	   3700.35635431	  -2980.92401338	    143.66381783	    179.99999979	   2157.24414159	     39.04246440	     14.32563306	    -24.91094068
     10.28000000	    -33.35617413	    -26.63762970	     32.66349476	   -117.06487076	    860.59712717	    -46.29162569	     26.41267126	    -45.00000000	     40.45309174	    -45.00000000	    -45.00000000	   1690.79668319	  -2081.40970664	     20.77110289	   -140.53613435	    358.81788807	    160.66410057	     16.35130571	     14.05494383	     -2.93676566	     38.44128986	    -35.63698541	    -45.00000000	    -24.18005847	   3700.53773929	  -2981.01242276	    143.49484475	    179.99999979	   2157.22362595	     39.13856709	     14.10142963	    -24.99999983
     10.29000000	    -33.29730761	    -26.65055662	     32.70059888	   -117.11002190	    860.51554130	    -46.22424453	     26.12624893	    -45.00000000	     40.57394920	    -45.00000000	    -45.00000000	   1690.75717461	  -2081.47508834	     20.71980305	   -140.49651561	    358.71501895	    160.77573792	     16.29566347	     14.33551802	     -3.68347083	     38.61001960	    -35.47877442	    -45.00000000	    -24.34899257	   3700.25047113	  -2981.05625168	    143.69353157	    179.99999979	   2157.47124695	     39.26300564	     13.98711821	    -24.99999983
     10.30000000	    -33.23147094	    -26.72249493	     32.84340047	   -117.10657334	    860.28112263	    -46.12150446	     26.28993340	    -45.00000000	     40.59584925	    -45.00000000	    -45.00000000	   1690.66337496	  -2081.54177115	     20.69951982	   -140.48115023	    358.69225698	    160.81382417	     16.56110626	     13.96364996	     -3.02228791	     38.28926982	    -35.37366362	    -45.00000000	    -24.42980514	   3700.41326869	  -2981.13254355	    143.45669631	    179.99999979	   2157.38963537	     39.35886414	     13.69273068	    -24.99999983
     10.31000000	    -33.24185103	    -26.71335663	     32.93485769	   -117.05550213	    859.90703264	    -45.98871027	     26.17385217	    -45.00000000	     40.49079237	    -45.00000000	    -45.00000000	   1690.65574823	  -2081.51315874	     20.66871214	   -140.45849097	    358.65326193	    160.99593549	     16.48120222	     14.18758164	     -3.58543347	     38.52545995	    -35.30420363	    -45.00000000	    -24.71910054	   3700.16280961	  -2981.11577466	    143.59126047	    179.99999979	   2157.59307838	     39.47819383	     13.65146666	    -24.99999983
     10.32000000	    -33.15423081	    -26.80802929	     33.10360147	   -116.95408076	    859.41023103	    -45.83235972	     26.22446991	    -45.00000000	     40.58613927	    -45.00000000	    -45.00000000	   1690.56548208	  -2081.62671121	     20.64964920	   -140.43663945	    358.62474084	    161.08394107	     16.69846279	     13.96516916	     -3.27194883	     38.28607132	    -35.20524679	    -45.00000000	    -24.86514741	   3700.17730925	  -2981.21682004	    143.54809064	    179.99999979	   2157.68271280	     39.48423102	     13.21580013	    -24.89026721
     10.33000000	    -33.14377813	    -26.81975156	     33.22772695	   -116.79626185	    858.81315200	    -45.66113412	     26.21476722	    -45.00000000	     40.37535975	    -45.00000000	    -45.00000000	   1690.58461443	  -2081.50620707	     20.67117485	   -140.41335159	    358.58870893	    161.24715174	     16.58433190	     14.17361765	     -3.69902878	     38.54942473	    -35.11332640	    -45.00000000	    -25.19618446	   3700.01437715	  -2981.22090852	    143.60134753	    179.99999979	   2157.93343259	     39.55846885	     13.30917813	    -24.99999983
